<svg width="16" height="16" viewBox="0 0 16 16" fill="none" xmlns="http://www.w3.org/2000/svg">
<path d="M1 10.9038V7.46978H1.74895L1.78462 7.92994C1.89399 7.75137 2.03427 7.6163 2.20546 7.52473C2.37665 7.43315 2.57161 7.38736 2.79035 7.38736C3.07567 7.38736 3.31819 7.44918 3.51791 7.5728C3.71763 7.69643 3.86266 7.88416 3.95301 8.13599C4.05763 7.89331 4.20504 7.70788 4.39525 7.57967C4.58546 7.45147 4.80896 7.38736 5.06574 7.38736C5.47945 7.38736 5.79805 7.51557 6.02155 7.77198C6.24504 8.02381 6.35441 8.413 6.34966 8.93956V10.9038H5.55791V9.1456C5.55791 8.87088 5.527 8.66026 5.46518 8.51374C5.40336 8.36264 5.32015 8.25733 5.21553 8.1978C5.11092 8.13828 4.98966 8.10852 4.85175 8.10852C4.60448 8.10394 4.41189 8.18864 4.27399 8.36264C4.14084 8.53663 4.07427 8.78617 4.07427 9.11126V10.9038H3.27539V9.1456C3.27539 8.87088 3.24448 8.66026 3.18266 8.51374C3.1256 8.36264 3.04476 8.25733 2.94014 8.1978C2.83553 8.13828 2.71427 8.10852 2.57637 8.10852C2.32909 8.10394 2.13651 8.18864 1.9986 8.36264C1.86546 8.53663 1.79888 8.78617 1.79888 9.11126V10.9038H1Z" fill="#202527"/>
<path d="M8.54842 11C8.25835 11 8.00157 10.9451 7.77807 10.8352C7.55458 10.7253 7.37863 10.5742 7.25024 10.3819C7.12185 10.1896 7.05765 9.96978 7.05765 9.72253C7.05765 9.53938 7.09332 9.37225 7.16464 9.22115C7.24073 9.06548 7.34059 8.92353 7.46423 8.79533C7.58786 8.66712 7.72814 8.55266 7.88507 8.45192L8.70535 7.90934C8.80045 7.84524 8.89793 7.77656 8.99779 7.7033C9.09765 7.63004 9.18325 7.54533 9.25458 7.44918C9.33066 7.35302 9.3687 7.24313 9.3687 7.11951C9.3687 6.96841 9.31164 6.84936 9.19751 6.76236C9.08814 6.67537 8.94786 6.63187 8.77667 6.63187C8.62451 6.63187 8.49374 6.67766 8.38437 6.76923C8.27975 6.86081 8.22744 6.97527 8.22744 7.11264C8.22744 7.23626 8.26786 7.34615 8.3487 7.44231C8.42954 7.53846 8.52465 7.65293 8.63402 7.78571L9.55416 8.85027L11.316 10.9038H10.3673L8.955 9.2761L8.01346 8.1772C7.88982 8.0261 7.7852 7.89332 7.69961 7.77885C7.61402 7.6598 7.54982 7.54762 7.50702 7.44231C7.46898 7.33242 7.44996 7.22024 7.44996 7.10577C7.44996 6.89515 7.50702 6.70742 7.62115 6.54258C7.74003 6.37317 7.89695 6.24038 8.09192 6.14423C8.28688 6.04808 8.50563 6 8.74814 6C9.01444 6 9.24982 6.04808 9.4543 6.14423C9.66353 6.24038 9.82759 6.37317 9.94647 6.54258C10.0653 6.712 10.1248 6.90888 10.1248 7.13324C10.1248 7.31639 10.0749 7.4881 9.975 7.64835C9.87514 7.80861 9.73248 7.96429 9.54703 8.11538C9.36633 8.26648 9.15234 8.42674 8.90507 8.59615L8.3915 8.93269C8.30115 8.99222 8.21793 9.05861 8.14185 9.13187C8.06577 9.20513 8.00395 9.28755 7.95639 9.37912C7.90884 9.4707 7.88507 9.58059 7.88507 9.70879C7.88507 9.89194 7.94926 10.043 8.07765 10.1621C8.2108 10.2766 8.38199 10.3338 8.59122 10.3338C8.80996 10.3338 9.01919 10.2995 9.21891 10.2308C9.42339 10.1621 9.60409 10.0636 9.76101 9.93544C9.92269 9.80266 10.0487 9.6424 10.1391 9.45467C10.2294 9.26694 10.2746 9.05403 10.2746 8.81593H11.0378C11.0378 9.23718 10.9308 9.61264 10.7168 9.94231C10.5028 10.272 10.208 10.5307 9.83234 10.7184C9.46143 10.9061 9.03346 11 8.54842 11Z" fill="#202527"/>
<path d="M11.7831 10.9038V6.09615H12.582V10.9038H11.7831ZM14.2011 10.9038V9.1456H15V10.9038H14.2011ZM14.2011 9.1456C14.2011 8.87088 14.1678 8.66026 14.1013 8.51374C14.0347 8.36264 13.942 8.25733 13.8231 8.1978C13.7089 8.13828 13.5758 8.10852 13.4236 8.10852C13.1526 8.10394 12.9434 8.18864 12.7959 8.36264C12.6533 8.53663 12.582 8.78617 12.582 9.11126H12.2752C12.2752 8.74954 12.3299 8.44048 12.4393 8.18407C12.5534 7.92308 12.7127 7.72619 12.9172 7.59341C13.1217 7.45604 13.3642 7.38736 13.6448 7.38736C13.9253 7.38736 14.1678 7.44231 14.3723 7.5522C14.5768 7.66209 14.7313 7.83379 14.8359 8.06731C14.9453 8.29625 15 8.59615 15 8.96703V9.1456H14.2011Z" fill="#202527"/>
</svg>
