<svg width="64" height="64" viewBox="0 0 64 64" fill="none" xmlns="http://www.w3.org/2000/svg">
<path d="M4.392 25.216C3.792 25.216 3.24 25.126 2.736 24.946C2.232 24.766 1.8 24.514 1.44 24.19C1.08 23.854 0.804 23.464 0.612 23.02L2.358 22.246C2.538 22.582 2.802 22.864 3.15 23.092C3.51 23.32 3.906 23.434 4.338 23.434C4.806 23.434 5.178 23.356 5.454 23.2C5.742 23.032 5.886 22.804 5.886 22.516C5.886 22.24 5.778 22.03 5.562 21.886C5.346 21.73 5.04 21.604 4.644 21.508L3.798 21.274C2.946 21.058 2.28 20.716 1.8 20.248C1.32 19.768 1.08 19.222 1.08 18.61C1.08 17.71 1.368 17.014 1.944 16.522C2.532 16.03 3.372 15.784 4.464 15.784C5.016 15.784 5.52 15.868 5.976 16.036C6.444 16.192 6.846 16.42 7.182 16.72C7.518 17.008 7.752 17.35 7.884 17.746L6.21 18.502C6.09 18.202 5.862 17.974 5.526 17.818C5.19 17.65 4.818 17.566 4.41 17.566C4.002 17.566 3.684 17.656 3.456 17.836C3.228 18.004 3.114 18.244 3.114 18.556C3.114 18.736 3.216 18.904 3.42 19.06C3.624 19.204 3.918 19.324 4.302 19.42L5.364 19.672C5.952 19.816 6.432 20.044 6.804 20.356C7.176 20.656 7.452 20.998 7.632 21.382C7.812 21.754 7.902 22.132 7.902 22.516C7.902 23.056 7.746 23.53 7.434 23.938C7.134 24.346 6.72 24.664 6.192 24.892C5.664 25.108 5.064 25.216 4.392 25.216ZM13.0828 25.216C12.1348 25.216 11.4088 24.982 10.9048 24.514C10.4128 24.034 10.1668 23.35 10.1668 22.462V13.192H12.1648V22.084C12.1648 22.504 12.2608 22.822 12.4528 23.038C12.6568 23.254 12.9508 23.362 13.3348 23.362C13.4548 23.362 13.5868 23.338 13.7308 23.29C13.8748 23.242 14.0368 23.152 14.2168 23.02L14.9548 24.55C14.6428 24.766 14.3308 24.928 14.0188 25.036C13.7068 25.156 13.3948 25.216 13.0828 25.216ZM8.67277 17.728V16H14.5948V17.728H8.67277ZM21.9341 25L21.8441 23.308V20.374C21.8441 19.762 21.7781 19.252 21.6461 18.844C21.5261 18.424 21.3221 18.106 21.0341 17.89C20.7581 17.662 20.3861 17.548 19.9181 17.548C19.4861 17.548 19.1081 17.638 18.7841 17.818C18.4601 17.998 18.1841 18.28 17.9561 18.664L16.1921 18.016C16.3841 17.62 16.6361 17.254 16.9481 16.918C17.2721 16.57 17.6741 16.294 18.1541 16.09C18.6461 15.886 19.2341 15.784 19.9181 15.784C20.7941 15.784 21.5261 15.958 22.1141 16.306C22.7021 16.642 23.1341 17.128 23.4101 17.764C23.6981 18.4 23.8421 19.168 23.8421 20.068L23.7881 25H21.9341ZM19.3421 25.216C18.2621 25.216 17.4221 24.976 16.8221 24.496C16.2341 24.016 15.9401 23.338 15.9401 22.462C15.9401 21.526 16.2521 20.812 16.8761 20.32C17.5121 19.828 18.3941 19.582 19.5221 19.582H21.9341V21.13H20.1701C19.3661 21.13 18.8021 21.244 18.4781 21.472C18.1541 21.688 17.9921 22 17.9921 22.408C17.9921 22.756 18.1301 23.032 18.4061 23.236C18.6941 23.428 19.0901 23.524 19.5941 23.524C20.0501 23.524 20.4461 23.422 20.7821 23.218C21.1181 23.014 21.3761 22.744 21.5561 22.408C21.7481 22.072 21.8441 21.694 21.8441 21.274H22.4381C22.4381 22.498 22.1921 23.464 21.7001 24.172C21.2081 24.868 20.4221 25.216 19.3421 25.216ZM29.4656 25.216C28.5176 25.216 27.7916 24.982 27.2876 24.514C26.7956 24.034 26.5496 23.35 26.5496 22.462V13.192H28.5476V22.084C28.5476 22.504 28.6436 22.822 28.8356 23.038C29.0396 23.254 29.3336 23.362 29.7176 23.362C29.8376 23.362 29.9696 23.338 30.1136 23.29C30.2576 23.242 30.4196 23.152 30.5996 23.02L31.3376 24.55C31.0256 24.766 30.7136 24.928 30.4016 25.036C30.0896 25.156 29.7776 25.216 29.4656 25.216ZM25.0556 17.728V16H30.9776V17.728H25.0556ZM36.8409 25.216C35.9649 25.216 35.1849 25.018 34.5009 24.622C33.8289 24.214 33.2949 23.656 32.8989 22.948C32.5149 22.24 32.3229 21.424 32.3229 20.5C32.3229 19.576 32.5209 18.76 32.9169 18.052C33.3129 17.344 33.8529 16.792 34.5369 16.396C35.2329 15.988 36.0249 15.784 36.9129 15.784C37.7169 15.784 38.4429 15.994 39.0909 16.414C39.7389 16.822 40.2489 17.416 40.6209 18.196C41.0049 18.976 41.1969 19.906 41.1969 20.986H34.1229L34.3929 20.734C34.3929 21.286 34.5129 21.766 34.7529 22.174C34.9929 22.57 35.3109 22.876 35.7069 23.092C36.1029 23.308 36.5409 23.416 37.0209 23.416C37.5729 23.416 38.0289 23.296 38.3889 23.056C38.7489 22.804 39.0309 22.48 39.2349 22.084L41.0169 22.84C40.7649 23.32 40.4409 23.74 40.0449 24.1C39.6609 24.46 39.1989 24.736 38.6589 24.928C38.1309 25.12 37.5249 25.216 36.8409 25.216ZM34.5189 19.69L34.2309 19.438H39.3069L39.0369 19.69C39.0369 19.198 38.9289 18.796 38.7129 18.484C38.4969 18.16 38.2209 17.92 37.8849 17.764C37.5609 17.596 37.2189 17.512 36.8589 17.512C36.4989 17.512 36.1389 17.596 35.7789 17.764C35.4189 17.92 35.1189 18.16 34.8789 18.484C34.6389 18.796 34.5189 19.198 34.5189 19.69ZM46.017 25.216C45.417 25.216 44.865 25.126 44.361 24.946C43.857 24.766 43.425 24.514 43.065 24.19C42.705 23.854 42.429 23.464 42.237 23.02L43.983 22.246C44.163 22.582 44.427 22.864 44.775 23.092C45.135 23.32 45.531 23.434 45.963 23.434C46.431 23.434 46.803 23.356 47.079 23.2C47.367 23.032 47.511 22.804 47.511 22.516C47.511 22.24 47.403 22.03 47.187 21.886C46.971 21.73 46.665 21.604 46.269 21.508L45.423 21.274C44.571 21.058 43.905 20.716 43.425 20.248C42.945 19.768 42.705 19.222 42.705 18.61C42.705 17.71 42.993 17.014 43.569 16.522C44.157 16.03 44.997 15.784 46.089 15.784C46.641 15.784 47.145 15.868 47.601 16.036C48.069 16.192 48.471 16.42 48.807 16.72C49.143 17.008 49.377 17.35 49.509 17.746L47.835 18.502C47.715 18.202 47.487 17.974 47.151 17.818C46.815 17.65 46.443 17.566 46.035 17.566C45.627 17.566 45.309 17.656 45.081 17.836C44.853 18.004 44.739 18.244 44.739 18.556C44.739 18.736 44.841 18.904 45.045 19.06C45.249 19.204 45.543 19.324 45.927 19.42L46.989 19.672C47.577 19.816 48.057 20.044 48.429 20.356C48.801 20.656 49.077 20.998 49.257 21.382C49.437 21.754 49.527 22.132 49.527 22.516C49.527 23.056 49.371 23.53 49.059 23.938C48.759 24.346 48.345 24.664 47.817 24.892C47.289 25.108 46.689 25.216 46.017 25.216ZM5.256 52.216C4.356 52.216 3.552 52.018 2.844 51.622C2.148 51.214 1.602 50.656 1.206 49.948C0.81 49.24 0.612 48.424 0.612 47.5C0.612 46.576 0.804 45.76 1.188 45.052C1.584 44.344 2.13 43.792 2.826 43.396C3.522 42.988 4.32 42.784 5.22 42.784C6.12 42.784 6.918 42.988 7.614 43.396C8.31 43.792 8.85 44.344 9.234 45.052C9.63 45.76 9.828 46.576 9.828 47.5C9.828 48.424 9.636 49.24 9.252 49.948C8.868 50.656 8.328 51.214 7.632 51.622C6.936 52.018 6.144 52.216 5.256 52.216ZM5.256 50.362C5.748 50.362 6.186 50.242 6.57 50.002C6.954 49.75 7.254 49.414 7.47 48.994C7.686 48.562 7.794 48.064 7.794 47.5C7.794 46.936 7.68 46.444 7.452 46.024C7.236 45.592 6.936 45.256 6.552 45.016C6.168 44.764 5.724 44.638 5.22 44.638C4.716 44.638 4.272 44.758 3.888 44.998C3.504 45.238 3.204 45.574 2.988 46.006C2.772 46.438 2.664 46.936 2.664 47.5C2.664 48.064 2.772 48.562 2.988 48.994C3.216 49.414 3.522 49.75 3.906 50.002C4.302 50.242 4.752 50.362 5.256 50.362ZM12.475 52V42.046C12.475 41.098 12.709 40.372 13.177 39.868C13.657 39.352 14.377 39.094 15.337 39.094C15.649 39.094 15.979 39.148 16.327 39.256C16.687 39.352 17.029 39.484 17.353 39.652L16.615 41.146C16.387 41.038 16.183 40.96 16.003 40.912C15.835 40.864 15.685 40.84 15.553 40.84C15.193 40.84 14.923 40.96 14.743 41.2C14.575 41.428 14.491 41.806 14.491 42.334V52H12.475ZM10.927 44.656V43H16.849V44.656H10.927ZM22.825 52V43H24.715L24.805 44.206C25.081 43.738 25.435 43.384 25.867 43.144C26.299 42.904 26.791 42.784 27.343 42.784C28.063 42.784 28.675 42.946 29.179 43.27C29.683 43.594 30.049 44.086 30.277 44.746C30.541 44.11 30.913 43.624 31.393 43.288C31.873 42.952 32.437 42.784 33.085 42.784C34.129 42.784 34.933 43.12 35.497 43.792C36.061 44.452 36.337 45.472 36.325 46.852V52H34.327V47.392C34.327 46.672 34.249 46.12 34.093 45.736C33.937 45.34 33.727 45.064 33.463 44.908C33.199 44.752 32.893 44.674 32.545 44.674C31.921 44.662 31.435 44.884 31.087 45.34C30.751 45.796 30.583 46.45 30.583 47.302V52H28.567V47.392C28.567 46.672 28.489 46.12 28.333 45.736C28.189 45.34 27.985 45.064 27.721 44.908C27.457 44.752 27.151 44.674 26.803 44.674C26.179 44.662 25.693 44.884 25.345 45.34C25.009 45.796 24.841 46.45 24.841 47.302V52H22.825ZM38.5076 52V43H40.5056V52H38.5076ZM39.5156 41.29C39.1916 41.29 38.9096 41.176 38.6696 40.948C38.4416 40.708 38.3276 40.426 38.3276 40.102C38.3276 39.778 38.4416 39.502 38.6696 39.274C38.9096 39.046 39.1916 38.932 39.5156 38.932C39.8396 38.932 40.1156 39.046 40.3436 39.274C40.5836 39.502 40.7036 39.778 40.7036 40.102C40.7036 40.426 40.5836 40.708 40.3436 40.948C40.1156 41.176 39.8396 41.29 39.5156 41.29ZM42.8816 52V43H44.7716L44.8976 44.656V52H42.8816ZM48.9836 52V47.392H50.9996V52H48.9836ZM48.9836 47.392C48.9836 46.672 48.8996 46.12 48.7316 45.736C48.5756 45.34 48.3476 45.064 48.0476 44.908C47.7596 44.752 47.4176 44.674 47.0216 44.674C46.3496 44.662 45.8276 44.884 45.4556 45.34C45.0836 45.796 44.8976 46.45 44.8976 47.302H44.1416C44.1416 46.354 44.2796 45.544 44.5556 44.872C44.8316 44.188 45.2276 43.672 45.7436 43.324C46.2596 42.964 46.8716 42.784 47.5796 42.784C48.2996 42.784 48.9116 42.928 49.4156 43.216C49.9316 43.504 50.3216 43.954 50.5856 44.566C50.8616 45.166 50.9996 45.952 50.9996 46.924V47.392H48.9836ZM59.5398 52L59.4498 50.326V39.4H61.4478V52H59.5398ZM56.6058 52.216C55.7898 52.216 55.0758 52.024 54.4638 51.64C53.8638 51.244 53.3898 50.692 53.0418 49.984C52.7058 49.276 52.5378 48.448 52.5378 47.5C52.5378 46.54 52.7058 45.712 53.0418 45.016C53.3898 44.308 53.8638 43.762 54.4638 43.378C55.0758 42.982 55.7898 42.784 56.6058 42.784C57.3618 42.784 58.0098 42.982 58.5498 43.378C59.1018 43.762 59.5218 44.308 59.8098 45.016C60.0978 45.712 60.2418 46.54 60.2418 47.5C60.2418 48.448 60.0978 49.276 59.8098 49.984C59.5218 50.692 59.1018 51.244 58.5498 51.64C58.0098 52.024 57.3618 52.216 56.6058 52.216ZM57.1098 50.38C57.5658 50.38 57.9678 50.26 58.3158 50.02C58.6758 49.768 58.9518 49.426 59.1438 48.994C59.3478 48.562 59.4498 48.064 59.4498 47.5C59.4498 46.936 59.3478 46.438 59.1438 46.006C58.9518 45.574 58.6758 45.238 58.3158 44.998C57.9678 44.758 57.5598 44.638 57.0918 44.638C56.6118 44.638 56.1858 44.758 55.8138 44.998C55.4418 45.238 55.1478 45.574 54.9318 46.006C54.7278 46.438 54.6198 46.936 54.6078 47.5C54.6198 48.064 54.7278 48.562 54.9318 48.994C55.1478 49.426 55.4418 49.768 55.8138 50.02C56.1978 50.26 56.6298 50.38 57.1098 50.38Z" fill="#B877FF"/>
</svg>
