<svg width="16" height="17" viewBox="0 0 16 17" fill="none" xmlns="http://www.w3.org/2000/svg">
<path d="M14.6654 9.83186C14.6461 12.1079 14.5197 13.3626 13.6923 14.19C12.7157 15.1666 11.144 15.1666 8.00044 15.1666C4.85692 15.1666 3.28516 15.1666 2.3086 14.19C1.33203 13.2135 1.33203 11.6417 1.33203 8.49818C1.33203 5.35466 1.33203 3.7829 2.3086 2.80634C3.13603 1.97891 4.39074 1.85255 6.66676 1.83325" stroke="white" stroke-linecap="round"/>
<path d="M14.6667 5.16659H9.33333C8.12158 5.16659 7.39114 5.76127 7.12028 6.03344C7.0364 6.11774 6.99445 6.15989 6.99388 6.16046C6.9933 6.16104 6.95116 6.20298 6.86686 6.28687C6.59468 6.55772 6 7.28817 6 8.49992V10.4999M14.6667 5.16659L11.3333 1.83325M14.6667 5.16659L11.3333 8.49992" stroke="white" stroke-linecap="round" stroke-linejoin="round"/>
</svg>
