<svg width="26" height="22" viewBox="0 0 26 22" fill="none" xmlns="http://www.w3.org/2000/svg">
<rect width="26" height="22" rx="11" fill="#202527"/>
<path d="M17.3903 11.2655L14.0153 14.6405C13.9449 14.7109 13.8495 14.7504 13.75 14.7504C13.6505 14.7504 13.5551 14.7109 13.4847 14.6405C13.4143 14.5702 13.3748 14.4747 13.3748 14.3752C13.3748 14.2757 13.4143 14.1803 13.4847 14.1099L16.2198 11.3752H8.875C8.77554 11.3752 8.68016 11.3357 8.60984 11.2654C8.53951 11.195 8.5 11.0997 8.5 11.0002C8.5 10.9008 8.53951 10.8054 8.60984 10.735C8.68016 10.6647 8.77554 10.6252 8.875 10.6252H16.2198L13.4847 7.89052C13.4143 7.82016 13.3748 7.72472 13.3748 7.62521C13.3748 7.5257 13.4143 7.43026 13.4847 7.3599C13.5551 7.28953 13.6505 7.25 13.75 7.25C13.8495 7.25 13.9449 7.28953 14.0153 7.3599L17.3903 10.7349C17.4252 10.7697 17.4528 10.8111 17.4717 10.8566C17.4906 10.9021 17.5003 10.9509 17.5003 11.0002C17.5003 11.0495 17.4906 11.0983 17.4717 11.1438C17.4528 11.1893 17.4252 11.2307 17.3903 11.2655Z" fill="white"/>
</svg>
