<svg width="1768" height="396" viewBox="0 0 1768 396" fill="none" xmlns="http://www.w3.org/2000/svg">
<path d="M21.3333 305V152.619H44.1905L45.4095 173.952C50.0825 165.825 56.0762 159.629 63.3905 155.362C70.7048 151.095 79.2381 148.962 88.9905 148.962C101.181 148.962 111.543 151.806 120.076 157.495C128.813 163.184 135.111 171.819 138.971 183.4C143.238 172.225 149.435 163.692 157.562 157.8C165.892 151.908 175.746 148.962 187.124 148.962C204.19 148.962 217.6 154.651 227.352 166.029C237.308 177.406 242.184 194.676 241.981 217.838V305H217.6V226.981C217.6 211.946 215.975 200.467 212.724 192.543C209.676 184.619 205.511 179.235 200.229 176.39C194.946 173.343 188.851 171.819 181.943 171.819C169.956 171.819 160.61 176.594 153.905 186.143C147.2 195.489 143.848 208.797 143.848 226.067V305H119.467V226.981C119.467 211.946 117.841 200.467 114.59 192.543C111.543 184.619 107.276 179.235 101.79 176.39C96.5079 173.343 90.4127 171.819 83.5048 171.819C71.7206 171.819 62.4762 176.594 55.7714 186.143C49.0667 195.489 45.7143 208.797 45.7143 226.067V305H21.3333ZM347.302 308.657C332.471 308.657 319.366 305.305 307.988 298.6C296.61 291.692 287.671 282.244 281.169 270.257C274.871 258.27 271.721 244.454 271.721 228.81C271.721 213.165 274.871 199.349 281.169 187.362C287.671 175.375 296.509 166.029 307.683 159.324C319.061 152.416 332.064 148.962 346.693 148.962C360.915 148.962 373.207 152.517 383.569 159.629C393.931 166.537 401.956 176.289 407.645 188.886C413.334 201.483 416.179 216.314 416.179 233.381H290.312L296.407 228.2C296.407 240.39 298.54 250.854 302.807 259.59C307.277 268.327 313.474 275.032 321.398 279.705C329.321 284.175 338.363 286.41 348.521 286.41C359.29 286.41 368.331 283.87 375.645 278.79C383.163 273.711 388.953 267.006 393.017 258.676L414.045 269.343C410.185 277.267 405.004 284.175 398.502 290.067C392.204 295.959 384.687 300.53 375.95 303.781C367.417 307.032 357.867 308.657 347.302 308.657ZM297.931 217.838L291.531 212.962H396.674L390.274 218.143C390.274 208.39 388.344 199.959 384.483 192.848C380.623 185.737 375.442 180.251 368.94 176.39C362.439 172.53 354.921 170.6 346.388 170.6C338.058 170.6 330.134 172.53 322.617 176.39C315.302 180.251 309.309 185.737 304.636 192.848C300.166 199.756 297.931 208.086 297.931 217.838ZM559.69 305L558.471 276.657V91.6667H582.852V305H559.69ZM506.967 308.657C493.354 308.657 481.367 305.305 471.005 298.6C460.643 291.895 452.516 282.549 446.624 270.562C440.935 258.371 438.09 244.454 438.09 228.81C438.09 212.962 440.935 199.044 446.624 187.057C452.516 175.07 460.643 165.724 471.005 159.019C481.367 152.314 493.354 148.962 506.967 148.962C519.767 148.962 530.941 152.314 540.49 159.019C550.243 165.724 557.76 175.07 563.043 187.057C568.325 199.044 570.967 212.962 570.967 228.81C570.967 244.454 568.325 258.371 563.043 270.562C557.76 282.549 550.243 291.895 540.49 298.6C530.941 305.305 519.767 308.657 506.967 308.657ZM512.452 286.41C521.392 286.41 529.316 283.971 536.224 279.095C543.132 274.219 548.516 267.413 552.376 258.676C556.44 249.94 558.471 239.984 558.471 228.81C558.471 217.635 556.44 207.679 552.376 198.943C548.516 190.206 543.132 183.4 536.224 178.524C529.316 173.648 521.29 171.21 512.148 171.21C502.598 171.21 494.065 173.648 486.548 178.524C479.233 183.4 473.443 190.206 469.176 198.943C464.91 207.679 462.776 217.635 462.776 228.81C462.776 239.984 464.91 249.94 469.176 258.676C473.443 267.413 479.335 274.219 486.852 279.095C494.37 283.971 502.903 286.41 512.452 286.41ZM627.024 305V152.619H651.405V305H627.024ZM639.519 117.267C635.456 117.267 631.9 115.743 628.852 112.695C625.805 109.648 624.281 106.092 624.281 102.029C624.281 97.7619 625.805 94.2063 628.852 91.3619C631.9 88.3143 635.456 86.7905 639.519 86.7905C643.786 86.7905 647.341 88.3143 650.186 91.3619C653.233 94.2063 654.757 97.7619 654.757 102.029C654.757 106.092 653.233 109.648 650.186 112.695C647.341 115.743 643.786 117.267 639.519 117.267ZM790.2 305L788.981 280.01V224.543C788.981 212.556 787.66 202.702 785.019 194.981C782.378 187.057 778.213 181.063 772.524 177C766.835 172.937 759.419 170.905 750.276 170.905C741.946 170.905 734.733 172.632 728.638 176.086C722.746 179.337 717.87 184.619 714.01 191.933L692.067 183.4C695.927 176.289 700.6 170.194 706.086 165.114C711.571 159.832 717.971 155.87 725.286 153.229C732.6 150.384 740.93 148.962 750.276 148.962C764.498 148.962 776.181 151.806 785.324 157.495C794.67 162.981 801.679 171.21 806.352 182.181C811.025 192.949 813.26 206.359 813.057 222.41L812.752 305H790.2ZM744.486 308.657C726.606 308.657 712.587 304.594 702.429 296.467C692.473 288.137 687.495 276.657 687.495 262.029C687.495 246.587 692.575 234.803 702.733 226.676C713.095 218.346 727.521 214.181 746.01 214.181H789.59V234.6H751.495C737.273 234.6 727.114 236.937 721.019 241.61C715.127 246.283 712.181 252.987 712.181 261.724C712.181 269.648 715.127 275.946 721.019 280.619C726.911 285.089 735.14 287.324 745.705 287.324C754.441 287.324 762.06 285.495 768.562 281.838C775.063 277.978 780.041 272.594 783.495 265.686C787.152 258.575 788.981 250.244 788.981 240.695H799.343C799.343 261.419 794.67 277.978 785.324 290.371C775.978 302.562 762.365 308.657 744.486 308.657ZM925.138 252.886C913.964 252.886 903.297 250.752 893.138 246.486C883.183 242.219 874.446 236.327 866.929 228.81C859.411 221.292 853.519 212.556 849.252 202.6C844.986 192.441 842.852 181.775 842.852 170.6C842.852 159.019 844.986 148.251 849.252 138.295C853.519 128.34 859.411 119.603 866.929 112.086C874.446 104.568 883.183 98.6762 893.138 94.4095C903.297 90.1429 913.964 88.0095 925.138 88.0095C936.719 88.0095 947.487 90.1429 957.443 94.4095C967.398 98.6762 976.135 104.568 983.652 112.086C991.17 119.603 997.062 128.34 1001.33 138.295C1005.6 148.251 1007.73 159.019 1007.73 170.6C1007.73 181.775 1005.6 192.441 1001.33 202.6C997.062 212.556 991.17 221.292 983.652 228.81C976.135 236.327 967.398 242.219 957.443 246.486C947.487 250.752 936.719 252.886 925.138 252.886ZM925.138 235.819C937.938 235.819 949.214 233.076 958.967 227.59C968.719 222.105 976.338 214.486 981.824 204.733C987.31 194.778 990.052 183.4 990.052 170.6C990.052 157.597 987.31 146.219 981.824 136.467C976.338 126.714 968.719 119.095 958.967 113.61C949.214 107.921 937.938 105.076 925.138 105.076C912.541 105.076 901.367 107.921 891.614 113.61C881.862 119.095 874.243 126.714 868.757 136.467C863.271 146.219 860.529 157.597 860.529 170.6C860.529 183.4 863.271 194.778 868.757 204.733C874.243 214.486 881.862 222.105 891.614 227.59C901.367 233.076 912.541 235.819 925.138 235.819ZM894.357 213.876V124.886H926.357C935.5 124.886 943.017 127.527 948.91 132.81C954.802 137.889 957.748 144.695 957.748 153.229C957.748 158.917 956.122 163.997 952.871 168.467C949.824 172.937 945.659 176.289 940.376 178.524L961.405 213.876H943.424L925.138 181.571H910.205V213.876H894.357ZM910.205 166.943H926.967C931.03 166.943 934.383 165.724 937.024 163.286C939.868 160.644 941.291 157.292 941.291 153.229C941.291 148.962 939.868 145.61 937.024 143.171C934.179 140.53 930.421 139.21 925.748 139.21H910.205V166.943Z" fill="white"/>
</svg>
