<svg width="401" height="45" viewBox="0 0 401 45" fill="none" xmlns="http://www.w3.org/2000/svg">
<path d="M0.72 44V14H7.02L7.32 18.02C8.24 16.46 9.42 15.28 10.86 14.48C12.3 13.68 13.94 13.28 15.78 13.28C18.18 13.28 20.22 13.82 21.9 14.9C23.58 15.98 24.8 17.62 25.56 19.82C26.44 17.7 27.68 16.08 29.28 14.96C30.88 13.84 32.76 13.28 34.92 13.28C38.4 13.28 41.08 14.4 42.96 16.64C44.84 18.84 45.76 22.24 45.72 26.84V44H39.06V28.64C39.06 26.24 38.8 24.4 38.28 23.12C37.76 21.8 37.06 20.88 36.18 20.36C35.3 19.84 34.28 19.58 33.12 19.58C31.04 19.54 29.42 20.28 28.26 21.8C27.14 23.32 26.58 25.5 26.58 28.34V44H19.86V28.64C19.86 26.24 19.6 24.4 19.08 23.12C18.6 21.8 17.92 20.88 17.04 20.36C16.16 19.84 15.14 19.58 13.98 19.58C11.9 19.54 10.28 20.28 9.12 21.8C8 23.32 7.44 25.5 7.44 28.34V44H0.72ZM52.9955 44V14H59.6555V44H52.9955ZM56.3555 8.3C55.2755 8.3 54.3355 7.92 53.5355 7.16C52.7755 6.36 52.3955 5.42 52.3955 4.34C52.3955 3.26 52.7755 2.34 53.5355 1.58C54.3355 0.819999 55.2755 0.439999 56.3555 0.439999C57.4355 0.439999 58.3555 0.819999 59.1155 1.58C59.9155 2.34 60.3155 3.26 60.3155 4.34C60.3155 5.42 59.9155 6.36 59.1155 7.16C58.3555 7.92 57.4355 8.3 56.3555 8.3ZM67.5755 44V14H73.8755L74.2955 19.52V44H67.5755ZM87.9155 44V28.64H94.6355V44H87.9155ZM87.9155 28.64C87.9155 26.24 87.6355 24.4 87.0755 23.12C86.5555 21.8 85.7955 20.88 84.7955 20.36C83.8355 19.84 82.6955 19.58 81.3755 19.58C79.1355 19.54 77.3955 20.28 76.1555 21.8C74.9155 23.32 74.2955 25.5 74.2955 28.34H71.7755C71.7755 25.18 72.2355 22.48 73.1555 20.24C74.0755 17.96 75.3955 16.24 77.1155 15.08C78.8355 13.88 80.8755 13.28 83.2355 13.28C85.6355 13.28 87.6755 13.76 89.3555 14.72C91.0755 15.68 92.3755 17.18 93.2555 19.22C94.1755 21.22 94.6355 23.84 94.6355 27.08V28.64H87.9155ZM123.103 44L122.803 38.42V2H129.463V44H123.103ZM113.323 44.72C110.603 44.72 108.223 44.08 106.183 42.8C104.183 41.48 102.603 39.64 101.443 37.28C100.323 34.92 99.7627 32.16 99.7627 29C99.7627 25.8 100.323 23.04 101.443 20.72C102.603 18.36 104.183 16.54 106.183 15.26C108.223 13.94 110.603 13.28 113.323 13.28C115.843 13.28 118.003 13.94 119.803 15.26C121.643 16.54 123.043 18.36 124.003 20.72C124.963 23.04 125.443 25.8 125.443 29C125.443 32.16 124.963 34.92 124.003 37.28C123.043 39.64 121.643 41.48 119.803 42.8C118.003 44.08 115.843 44.72 113.323 44.72ZM115.003 38.6C116.523 38.6 117.863 38.2 119.023 37.4C120.223 36.56 121.143 35.42 121.783 33.98C122.463 32.54 122.803 30.88 122.803 29C122.803 27.12 122.463 25.46 121.783 24.02C121.143 22.58 120.223 21.46 119.023 20.66C117.863 19.86 116.503 19.46 114.943 19.46C113.343 19.46 111.923 19.86 110.683 20.66C109.443 21.46 108.463 22.58 107.743 24.02C107.063 25.46 106.703 27.12 106.663 29C106.703 30.88 107.063 32.54 107.743 33.98C108.463 35.42 109.443 36.56 110.683 37.4C111.963 38.2 113.403 38.6 115.003 38.6ZM155.192 44L154.892 38.36V28.58C154.892 26.54 154.672 24.84 154.232 23.48C153.832 22.08 153.152 21.02 152.192 20.3C151.272 19.54 150.032 19.16 148.472 19.16C147.032 19.16 145.772 19.46 144.692 20.06C143.612 20.66 142.692 21.6 141.932 22.88L136.052 20.72C136.692 19.4 137.532 18.18 138.572 17.06C139.652 15.9 140.992 14.98 142.592 14.3C144.232 13.62 146.192 13.28 148.472 13.28C151.392 13.28 153.832 13.86 155.792 15.02C157.752 16.14 159.192 17.76 160.112 19.88C161.072 22 161.552 24.56 161.552 27.56L161.372 44H155.192ZM146.552 44.72C142.952 44.72 140.152 43.92 138.152 42.32C136.192 40.72 135.212 38.46 135.212 35.54C135.212 32.42 136.252 30.04 138.332 28.4C140.452 26.76 143.392 25.94 147.152 25.94H155.192V31.1H149.312C146.632 31.1 144.752 31.48 143.672 32.24C142.592 32.96 142.052 34 142.052 35.36C142.052 36.52 142.512 37.44 143.432 38.12C144.392 38.76 145.712 39.08 147.392 39.08C148.912 39.08 150.232 38.74 151.352 38.06C152.472 37.38 153.332 36.48 153.932 35.36C154.572 34.24 154.892 32.98 154.892 31.58H156.872C156.872 35.66 156.052 38.88 154.412 41.24C152.772 43.56 150.152 44.72 146.552 44.72ZM168.357 44V14H174.657L175.077 19.52V44H168.357ZM188.697 44V28.64H195.417V44H188.697ZM188.697 28.64C188.697 26.24 188.417 24.4 187.857 23.12C187.337 21.8 186.577 20.88 185.577 20.36C184.617 19.84 183.477 19.58 182.157 19.58C179.917 19.54 178.177 20.28 176.937 21.8C175.697 23.32 175.077 25.5 175.077 28.34H172.557C172.557 25.18 173.017 22.48 173.937 20.24C174.857 17.96 176.177 16.24 177.897 15.08C179.617 13.88 181.657 13.28 184.017 13.28C186.417 13.28 188.457 13.76 190.137 14.72C191.857 15.68 193.157 17.18 194.037 19.22C194.957 21.22 195.417 23.84 195.417 27.08V28.64H188.697ZM223.884 44L223.584 38.42V2H230.244V44H223.884ZM214.104 44.72C211.384 44.72 209.004 44.08 206.964 42.8C204.964 41.48 203.384 39.64 202.224 37.28C201.104 34.92 200.544 32.16 200.544 29C200.544 25.8 201.104 23.04 202.224 20.72C203.384 18.36 204.964 16.54 206.964 15.26C209.004 13.94 211.384 13.28 214.104 13.28C216.624 13.28 218.784 13.94 220.584 15.26C222.424 16.54 223.824 18.36 224.784 20.72C225.744 23.04 226.224 25.8 226.224 29C226.224 32.16 225.744 34.92 224.784 37.28C223.824 39.64 222.424 41.48 220.584 42.8C218.784 44.08 216.624 44.72 214.104 44.72ZM215.784 38.6C217.304 38.6 218.644 38.2 219.804 37.4C221.004 36.56 221.924 35.42 222.564 33.98C223.244 32.54 223.584 30.88 223.584 29C223.584 27.12 223.244 25.46 222.564 24.02C221.924 22.58 221.004 21.46 219.804 20.66C218.644 19.86 217.284 19.46 215.724 19.46C214.124 19.46 212.704 19.86 211.464 20.66C210.224 21.46 209.244 22.58 208.524 24.02C207.844 25.46 207.484 27.12 207.444 29C207.484 30.88 207.844 32.54 208.524 33.98C209.244 35.42 210.224 36.56 211.464 37.4C212.744 38.2 214.184 38.6 215.784 38.6ZM237.733 44V2H244.453V44H237.733ZM258.073 44V28.64H264.793V44H258.073ZM258.073 28.64C258.073 26.24 257.793 24.4 257.233 23.12C256.673 21.8 255.893 20.88 254.893 20.36C253.933 19.84 252.813 19.58 251.533 19.58C249.253 19.54 247.493 20.28 246.253 21.8C245.053 23.32 244.453 25.5 244.453 28.34H241.873C241.873 25.18 242.333 22.48 243.253 20.24C244.213 17.96 245.553 16.24 247.273 15.08C248.993 13.88 251.033 13.28 253.393 13.28C255.753 13.28 257.793 13.76 259.513 14.72C261.233 15.68 262.533 17.18 263.413 19.22C264.333 21.22 264.793 23.84 264.793 27.08V28.64H258.073ZM284.979 44.72C282.059 44.72 279.459 44.06 277.179 42.74C274.939 41.38 273.159 39.52 271.839 37.16C270.559 34.8 269.919 32.08 269.919 29C269.919 25.92 270.579 23.2 271.899 20.84C273.219 18.48 275.019 16.64 277.299 15.32C279.619 13.96 282.259 13.28 285.219 13.28C287.899 13.28 290.319 13.98 292.479 15.38C294.639 16.74 296.339 18.72 297.579 21.32C298.859 23.92 299.499 27.02 299.499 30.62H275.919L276.819 29.78C276.819 31.62 277.219 33.22 278.019 34.58C278.819 35.9 279.879 36.92 281.199 37.64C282.519 38.36 283.979 38.72 285.579 38.72C287.419 38.72 288.939 38.32 290.139 37.52C291.339 36.68 292.279 35.6 292.959 34.28L298.899 36.8C298.059 38.4 296.979 39.8 295.659 41C294.379 42.2 292.839 43.12 291.039 43.76C289.279 44.4 287.259 44.72 284.979 44.72ZM277.239 26.3L276.279 25.46H293.199L292.299 26.3C292.299 24.66 291.939 23.32 291.219 22.28C290.499 21.2 289.579 20.4 288.459 19.88C287.379 19.32 286.239 19.04 285.039 19.04C283.839 19.04 282.639 19.32 281.439 19.88C280.239 20.4 279.239 21.2 278.439 22.28C277.639 23.32 277.239 24.66 277.239 26.3ZM322.946 44L322.646 38.36V28.58C322.646 26.54 322.426 24.84 321.986 23.48C321.586 22.08 320.906 21.02 319.946 20.3C319.026 19.54 317.786 19.16 316.226 19.16C314.786 19.16 313.526 19.46 312.446 20.06C311.366 20.66 310.446 21.6 309.686 22.88L303.806 20.72C304.446 19.4 305.286 18.18 306.326 17.06C307.406 15.9 308.746 14.98 310.346 14.3C311.986 13.62 313.946 13.28 316.226 13.28C319.146 13.28 321.586 13.86 323.546 15.02C325.506 16.14 326.946 17.76 327.866 19.88C328.826 22 329.306 24.56 329.306 27.56L329.126 44H322.946ZM314.306 44.72C310.706 44.72 307.906 43.92 305.906 42.32C303.946 40.72 302.966 38.46 302.966 35.54C302.966 32.42 304.006 30.04 306.086 28.4C308.206 26.76 311.146 25.94 314.906 25.94H322.946V31.1H317.066C314.386 31.1 312.506 31.48 311.426 32.24C310.346 32.96 309.806 34 309.806 35.36C309.806 36.52 310.266 37.44 311.186 38.12C312.146 38.76 313.466 39.08 315.146 39.08C316.666 39.08 317.986 38.74 319.106 38.06C320.226 37.38 321.086 36.48 321.686 35.36C322.326 34.24 322.646 32.98 322.646 31.58H324.626C324.626 35.66 323.806 38.88 322.166 41.24C320.526 43.56 317.906 44.72 314.306 44.72ZM336.111 44V2H342.831V44H336.111ZM362.23 44.72C359.07 44.72 356.65 43.94 354.97 42.38C353.33 40.78 352.51 38.5 352.51 35.54V4.64H359.17V34.28C359.17 35.68 359.49 36.74 360.13 37.46C360.81 38.18 361.79 38.54 363.07 38.54C363.47 38.54 363.91 38.46 364.39 38.3C364.87 38.14 365.41 37.84 366.01 37.4L368.47 42.5C367.43 43.22 366.39 43.76 365.35 44.12C364.31 44.52 363.27 44.72 362.23 44.72ZM347.53 19.76V14H367.27V19.76H347.53ZM373.905 44V2H380.625V44H373.905ZM394.245 44V28.64H400.965V44H394.245ZM394.245 28.64C394.245 26.24 393.965 24.4 393.405 23.12C392.845 21.8 392.065 20.88 391.065 20.36C390.105 19.84 388.985 19.58 387.705 19.58C385.425 19.54 383.665 20.28 382.425 21.8C381.225 23.32 380.625 25.5 380.625 28.34H378.045C378.045 25.18 378.505 22.48 379.425 20.24C380.385 17.96 381.725 16.24 383.445 15.08C385.165 13.88 387.205 13.28 389.565 13.28C391.925 13.28 393.965 13.76 395.685 14.72C397.405 15.68 398.705 17.18 399.585 19.22C400.505 21.22 400.965 23.84 400.965 27.08V28.64H394.245Z" fill="#B468FF"/>
</svg>
