<svg width="54" height="22" viewBox="0 0 54 22" fill="none" xmlns="http://www.w3.org/2000/svg">
<path d="M1.12 16.5V8.5H2.32L2.384 9.62C2.62933 9.19333 2.944 8.868 3.328 8.644C3.712 8.42 4.16 8.308 4.672 8.308C5.312 8.308 5.856 8.45733 6.304 8.756C6.76267 9.05467 7.09333 9.508 7.296 10.116C7.52 9.52933 7.84533 9.08133 8.272 8.772C8.70933 8.46267 9.22667 8.308 9.824 8.308C10.72 8.308 11.424 8.60667 11.936 9.204C12.4587 9.80133 12.7147 10.708 12.704 11.924V16.5H11.424V12.404C11.424 11.6147 11.3387 11.012 11.168 10.596C11.008 10.18 10.7893 9.89733 10.512 9.748C10.2347 9.588 9.91467 9.508 9.552 9.508C8.92267 9.508 8.432 9.75867 8.08 10.26C7.728 10.7507 7.552 11.4493 7.552 12.356V16.5H6.272V12.404C6.272 11.6147 6.18667 11.012 6.016 10.596C5.856 10.18 5.632 9.89733 5.344 9.748C5.06667 9.588 4.74667 9.508 4.384 9.508C3.76533 9.508 3.28 9.75867 2.928 10.26C2.576 10.7507 2.4 11.4493 2.4 12.356V16.5H1.12ZM18.2334 16.692C17.4547 16.692 16.7667 16.516 16.1694 16.164C15.572 15.8013 15.1027 15.3053 14.7614 14.676C14.4307 14.0467 14.2654 13.3213 14.2654 12.5C14.2654 11.6787 14.4307 10.9533 14.7614 10.324C15.1027 9.69467 15.5667 9.204 16.1534 8.852C16.7507 8.48933 17.4334 8.308 18.2014 8.308C18.948 8.308 19.5934 8.49467 20.1374 8.868C20.6814 9.23067 21.1027 9.74267 21.4014 10.404C21.7 11.0653 21.8494 11.844 21.8494 12.74H15.2414L15.5614 12.468C15.5614 13.108 15.6734 13.6573 15.8974 14.116C16.132 14.5747 16.4574 14.9267 16.8734 15.172C17.2894 15.4067 17.764 15.524 18.2974 15.524C18.8627 15.524 19.3374 15.3907 19.7214 15.124C20.116 14.8573 20.42 14.5053 20.6334 14.068L21.7374 14.628C21.5347 15.044 21.2627 15.4067 20.9214 15.716C20.5907 16.0253 20.196 16.2653 19.7374 16.436C19.2894 16.6067 18.788 16.692 18.2334 16.692ZM15.6414 11.924L15.3054 11.668H20.8254L20.4894 11.94C20.4894 11.428 20.388 10.9853 20.1854 10.612C19.9827 10.2387 19.7107 9.95067 19.3694 9.748C19.028 9.54533 18.6334 9.444 18.1854 9.444C17.748 9.444 17.332 9.54533 16.9374 9.748C16.5534 9.95067 16.2387 10.2387 15.9934 10.612C15.7587 10.9747 15.6414 11.412 15.6414 11.924ZM29.3838 16.5L29.3198 15.012V5.3H30.5998V16.5H29.3838ZM26.6158 16.692C25.9011 16.692 25.2718 16.516 24.7278 16.164C24.1838 15.812 23.7571 15.3213 23.4478 14.692C23.1491 14.052 22.9998 13.3213 22.9998 12.5C22.9998 11.668 23.1491 10.9373 23.4478 10.308C23.7571 9.67867 24.1838 9.188 24.7278 8.836C25.2718 8.484 25.9011 8.308 26.6158 8.308C27.2878 8.308 27.8744 8.484 28.3758 8.836C28.8878 9.188 29.2824 9.67867 29.5598 10.308C29.8371 10.9373 29.9758 11.668 29.9758 12.5C29.9758 13.3213 29.8371 14.052 29.5598 14.692C29.2824 15.3213 28.8878 15.812 28.3758 16.164C27.8744 16.516 27.2878 16.692 26.6158 16.692ZM26.9038 15.524C27.3731 15.524 27.7891 15.396 28.1518 15.14C28.5144 14.884 28.7971 14.5267 28.9998 14.068C29.2131 13.6093 29.3198 13.0867 29.3198 12.5C29.3198 11.9133 29.2131 11.3907 28.9998 10.932C28.7971 10.4733 28.5144 10.116 28.1518 9.86C27.7891 9.604 27.3678 9.476 26.8878 9.476C26.3864 9.476 25.9384 9.604 25.5438 9.86C25.1598 10.116 24.8558 10.4733 24.6318 10.932C24.4078 11.3907 24.2958 11.9133 24.2958 12.5C24.2958 13.0867 24.4078 13.6093 24.6318 14.068C24.8558 14.5267 25.1651 14.884 25.5598 15.14C25.9544 15.396 26.4024 15.524 26.9038 15.524ZM32.9188 16.5V8.5H34.1988V16.5H32.9188ZM33.5748 6.644C33.3614 6.644 33.1748 6.564 33.0148 6.404C32.8547 6.244 32.7747 6.05733 32.7747 5.844C32.7747 5.62 32.8547 5.43333 33.0148 5.284C33.1748 5.124 33.3614 5.044 33.5748 5.044C33.7988 5.044 33.9854 5.124 34.1348 5.284C34.2948 5.43333 34.3748 5.62 34.3748 5.844C34.3748 6.05733 34.2948 6.244 34.1348 6.404C33.9854 6.564 33.7988 6.644 33.5748 6.644ZM41.4855 16.5L41.4215 15.188V12.276C41.4215 11.6467 41.3522 11.1293 41.2135 10.724C41.0748 10.308 40.8562 9.99333 40.5575 9.78C40.2588 9.56667 39.8695 9.46 39.3895 9.46C38.9522 9.46 38.5735 9.55067 38.2535 9.732C37.9442 9.90267 37.6882 10.18 37.4855 10.564L36.3335 10.116C36.5362 9.74267 36.7815 9.42267 37.0695 9.156C37.3575 8.87867 37.6935 8.67067 38.0775 8.532C38.4615 8.38267 38.8988 8.308 39.3895 8.308C40.1362 8.308 40.7495 8.45733 41.2295 8.756C41.7202 9.044 42.0882 9.476 42.3335 10.052C42.5788 10.6173 42.6962 11.3213 42.6855 12.164L42.6695 16.5H41.4855ZM39.0855 16.692C38.1468 16.692 37.4108 16.4787 36.8775 16.052C36.3548 15.6147 36.0935 15.012 36.0935 14.244C36.0935 13.4333 36.3602 12.8147 36.8935 12.388C37.4375 11.9507 38.1948 11.732 39.1655 11.732H41.4535V12.804H39.4535C38.7068 12.804 38.1735 12.9267 37.8535 13.172C37.5442 13.4173 37.3895 13.7693 37.3895 14.228C37.3895 14.644 37.5442 14.9747 37.8535 15.22C38.1628 15.4547 38.5948 15.572 39.1495 15.572C39.6082 15.572 40.0082 15.476 40.3495 15.284C40.6908 15.0813 40.9522 14.7987 41.1335 14.436C41.3255 14.0627 41.4215 13.6253 41.4215 13.124H41.9655C41.9655 14.212 41.7202 15.0813 41.2295 15.732C40.7388 16.372 40.0242 16.692 39.0855 16.692ZM48.5698 13.764C47.9831 13.764 47.4231 13.652 46.8898 13.428C46.3671 13.204 45.9084 12.8947 45.5138 12.5C45.1191 12.1053 44.8098 11.6467 44.5858 11.124C44.3618 10.5907 44.2498 10.0307 44.2498 9.444C44.2498 8.836 44.3618 8.27067 44.5858 7.748C44.8098 7.22533 45.1191 6.76667 45.5138 6.372C45.9084 5.97733 46.3671 5.668 46.8898 5.444C47.4231 5.22 47.9831 5.108 48.5698 5.108C49.1778 5.108 49.7431 5.22 50.2658 5.444C50.7884 5.668 51.2471 5.97733 51.6418 6.372C52.0364 6.76667 52.3458 7.22533 52.5698 7.748C52.7938 8.27067 52.9058 8.836 52.9058 9.444C52.9058 10.0307 52.7938 10.5907 52.5698 11.124C52.3458 11.6467 52.0364 12.1053 51.6418 12.5C51.2471 12.8947 50.7884 13.204 50.2658 13.428C49.7431 13.652 49.1778 13.764 48.5698 13.764ZM48.5698 12.868C49.2418 12.868 49.8338 12.724 50.3458 12.436C50.8578 12.148 51.2578 11.748 51.5458 11.236C51.8338 10.7133 51.9778 10.116 51.9778 9.444C51.9778 8.76133 51.8338 8.164 51.5458 7.652C51.2578 7.14 50.8578 6.74 50.3458 6.452C49.8338 6.15333 49.2418 6.004 48.5698 6.004C47.9084 6.004 47.3218 6.15333 46.8098 6.452C46.2978 6.74 45.8978 7.14 45.6098 7.652C45.3218 8.164 45.1778 8.76133 45.1778 9.444C45.1778 10.116 45.3218 10.7133 45.6098 11.236C45.8978 11.748 46.2978 12.148 46.8098 12.436C47.3218 12.724 47.9084 12.868 48.5698 12.868ZM46.9538 11.716V7.044H48.6338C49.1138 7.044 49.5084 7.18267 49.8178 7.46C50.1271 7.72667 50.2818 8.084 50.2818 8.532C50.2818 8.83067 50.1964 9.09733 50.0258 9.332C49.8658 9.56667 49.6471 9.74267 49.3698 9.86L50.4738 11.716H49.5298L48.5698 10.02H47.7858V11.716H46.9538ZM47.7858 9.252H48.6658C48.8791 9.252 49.0551 9.188 49.1938 9.06C49.3431 8.92133 49.4178 8.74533 49.4178 8.532C49.4178 8.308 49.3431 8.132 49.1938 8.004C49.0444 7.86533 48.8471 7.796 48.6018 7.796H47.7858V9.252Z" fill="#0E1011"/>
</svg>
