<svg width="123" height="28" viewBox="0 0 123 28" fill="none" xmlns="http://www.w3.org/2000/svg">
<path d="M1.116 20.5V11.5H3.006L3.096 12.706C3.372 12.238 3.726 11.884 4.158 11.644C4.59 11.404 5.082 11.284 5.634 11.284C6.354 11.284 6.966 11.446 7.47 11.77C7.974 12.094 8.34 12.586 8.568 13.246C8.832 12.61 9.204 12.124 9.684 11.788C10.164 11.452 10.728 11.284 11.376 11.284C12.42 11.284 13.224 11.62 13.788 12.292C14.352 12.952 14.628 13.972 14.616 15.352V20.5H12.618V15.892C12.618 15.172 12.54 14.62 12.384 14.236C12.228 13.84 12.018 13.564 11.754 13.408C11.49 13.252 11.184 13.174 10.836 13.174C10.212 13.162 9.726 13.384 9.378 13.84C9.042 14.296 8.874 14.95 8.874 15.802V20.5H6.858V15.892C6.858 15.172 6.78 14.62 6.624 14.236C6.48 13.84 6.276 13.564 6.012 13.408C5.748 13.252 5.442 13.174 5.094 13.174C4.47 13.162 3.984 13.384 3.636 13.84C3.3 14.296 3.132 14.95 3.132 15.802V20.5H1.116ZM16.7986 20.5V11.5H18.7966V20.5H16.7986ZM17.8066 9.79C17.4826 9.79 17.2006 9.676 16.9606 9.448C16.7326 9.208 16.6186 8.926 16.6186 8.602C16.6186 8.278 16.7326 8.002 16.9606 7.774C17.2006 7.546 17.4826 7.432 17.8066 7.432C18.1306 7.432 18.4066 7.546 18.6346 7.774C18.8746 8.002 18.9946 8.278 18.9946 8.602C18.9946 8.926 18.8746 9.208 18.6346 9.448C18.4066 9.676 18.1306 9.79 17.8066 9.79ZM21.1726 20.5V11.5H23.0626L23.1886 13.156V20.5H21.1726ZM27.2746 20.5V15.892H29.2906V20.5H27.2746ZM27.2746 15.892C27.2746 15.172 27.1906 14.62 27.0226 14.236C26.8666 13.84 26.6386 13.564 26.3386 13.408C26.0506 13.252 25.7086 13.174 25.3126 13.174C24.6406 13.162 24.1186 13.384 23.7466 13.84C23.3746 14.296 23.1886 14.95 23.1886 15.802H22.4326C22.4326 14.854 22.5706 14.044 22.8466 13.372C23.1226 12.688 23.5186 12.172 24.0346 11.824C24.5506 11.464 25.1626 11.284 25.8706 11.284C26.5906 11.284 27.2026 11.428 27.7066 11.716C28.2226 12.004 28.6126 12.454 28.8766 13.066C29.1526 13.666 29.2906 14.452 29.2906 15.424V15.892H27.2746ZM37.8308 20.5L37.7408 18.826V7.9H39.7388V20.5H37.8308ZM34.8968 20.716C34.0808 20.716 33.3668 20.524 32.7548 20.14C32.1548 19.744 31.6808 19.192 31.3328 18.484C30.9968 17.776 30.8288 16.948 30.8288 16C30.8288 15.04 30.9968 14.212 31.3328 13.516C31.6808 12.808 32.1548 12.262 32.7548 11.878C33.3668 11.482 34.0808 11.284 34.8968 11.284C35.6528 11.284 36.3008 11.482 36.8408 11.878C37.3928 12.262 37.8128 12.808 38.1008 13.516C38.3888 14.212 38.5328 15.04 38.5328 16C38.5328 16.948 38.3888 17.776 38.1008 18.484C37.8128 19.192 37.3928 19.744 36.8408 20.14C36.3008 20.524 35.6528 20.716 34.8968 20.716ZM35.4008 18.88C35.8568 18.88 36.2588 18.76 36.6068 18.52C36.9668 18.268 37.2428 17.926 37.4348 17.494C37.6388 17.062 37.7408 16.564 37.7408 16C37.7408 15.436 37.6388 14.938 37.4348 14.506C37.2428 14.074 36.9668 13.738 36.6068 13.498C36.2588 13.258 35.8508 13.138 35.3828 13.138C34.9028 13.138 34.4768 13.258 34.1048 13.498C33.7328 13.738 33.4388 14.074 33.2228 14.506C33.0188 14.938 32.9108 15.436 32.8988 16C32.9108 16.564 33.0188 17.062 33.2228 17.494C33.4388 17.926 33.7328 18.268 34.1048 18.52C34.4888 18.76 34.9208 18.88 35.4008 18.88ZM47.4576 20.5L47.3676 18.808V15.874C47.3676 15.262 47.3016 14.752 47.1696 14.344C47.0496 13.924 46.8456 13.606 46.5576 13.39C46.2816 13.162 45.9096 13.048 45.4416 13.048C45.0096 13.048 44.6316 13.138 44.3076 13.318C43.9836 13.498 43.7076 13.78 43.4796 14.164L41.7156 13.516C41.9076 13.12 42.1596 12.754 42.4716 12.418C42.7956 12.07 43.1976 11.794 43.6776 11.59C44.1696 11.386 44.7576 11.284 45.4416 11.284C46.3176 11.284 47.0496 11.458 47.6376 11.806C48.2256 12.142 48.6576 12.628 48.9336 13.264C49.2216 13.9 49.3656 14.668 49.3656 15.568L49.3116 20.5H47.4576ZM44.8656 20.716C43.7856 20.716 42.9456 20.476 42.3456 19.996C41.7576 19.516 41.4636 18.838 41.4636 17.962C41.4636 17.026 41.7756 16.312 42.3996 15.82C43.0356 15.328 43.9176 15.082 45.0456 15.082H47.4576V16.63H45.6936C44.8896 16.63 44.3256 16.744 44.0016 16.972C43.6776 17.188 43.5156 17.5 43.5156 17.908C43.5156 18.256 43.6536 18.532 43.9296 18.736C44.2176 18.928 44.6136 19.024 45.1176 19.024C45.5736 19.024 45.9696 18.922 46.3056 18.718C46.6416 18.514 46.8996 18.244 47.0796 17.908C47.2716 17.572 47.3676 17.194 47.3676 16.774H47.9616C47.9616 17.998 47.7156 18.964 47.2236 19.672C46.7316 20.368 45.9456 20.716 44.8656 20.716ZM51.407 20.5V11.5H53.297L53.423 13.156V20.5H51.407ZM57.509 20.5V15.892H59.525V20.5H57.509ZM57.509 15.892C57.509 15.172 57.425 14.62 57.257 14.236C57.101 13.84 56.873 13.564 56.573 13.408C56.285 13.252 55.943 13.174 55.547 13.174C54.875 13.162 54.353 13.384 53.981 13.84C53.609 14.296 53.423 14.95 53.423 15.802H52.667C52.667 14.854 52.805 14.044 53.081 13.372C53.357 12.688 53.753 12.172 54.269 11.824C54.785 11.464 55.397 11.284 56.105 11.284C56.825 11.284 57.437 11.428 57.941 11.716C58.457 12.004 58.847 12.454 59.111 13.066C59.387 13.666 59.525 14.452 59.525 15.424V15.892H57.509ZM68.0652 20.5L67.9752 18.826V7.9H69.9732V20.5H68.0652ZM65.1312 20.716C64.3152 20.716 63.6012 20.524 62.9892 20.14C62.3892 19.744 61.9152 19.192 61.5672 18.484C61.2312 17.776 61.0632 16.948 61.0632 16C61.0632 15.04 61.2312 14.212 61.5672 13.516C61.9152 12.808 62.3892 12.262 62.9892 11.878C63.6012 11.482 64.3152 11.284 65.1312 11.284C65.8872 11.284 66.5352 11.482 67.0752 11.878C67.6272 12.262 68.0472 12.808 68.3352 13.516C68.6232 14.212 68.7672 15.04 68.7672 16C68.7672 16.948 68.6232 17.776 68.3352 18.484C68.0472 19.192 67.6272 19.744 67.0752 20.14C66.5352 20.524 65.8872 20.716 65.1312 20.716ZM65.6352 18.88C66.0912 18.88 66.4932 18.76 66.8412 18.52C67.2012 18.268 67.4772 17.926 67.6692 17.494C67.8732 17.062 67.9752 16.564 67.9752 16C67.9752 15.436 67.8732 14.938 67.6692 14.506C67.4772 14.074 67.2012 13.738 66.8412 13.498C66.4932 13.258 66.0852 13.138 65.6172 13.138C65.1372 13.138 64.7112 13.258 64.3392 13.498C63.9672 13.738 63.6732 14.074 63.4572 14.506C63.2532 14.938 63.1452 15.436 63.1332 16C63.1452 16.564 63.2532 17.062 63.4572 17.494C63.6732 17.926 63.9672 18.268 64.3392 18.52C64.7232 18.76 65.1552 18.88 65.6352 18.88ZM72.2199 20.5V7.9H74.2359V20.5H72.2199ZM78.3219 20.5V15.892H80.3379V20.5H78.3219ZM78.3219 15.892C78.3219 15.172 78.2379 14.62 78.0699 14.236C77.9019 13.84 77.6679 13.564 77.3679 13.408C77.0799 13.252 76.7439 13.174 76.3599 13.174C75.6759 13.162 75.1479 13.384 74.7759 13.84C74.4159 14.296 74.2359 14.95 74.2359 15.802H73.4619C73.4619 14.854 73.5999 14.044 73.8759 13.372C74.1639 12.688 74.5659 12.172 75.0819 11.824C75.5979 11.464 76.2099 11.284 76.9179 11.284C77.6259 11.284 78.2379 11.428 78.7539 11.716C79.2699 12.004 79.6599 12.454 79.9239 13.066C80.1999 13.666 80.3379 14.452 80.3379 15.424V15.892H78.3219ZM86.3937 20.716C85.5177 20.716 84.7377 20.518 84.0537 20.122C83.3817 19.714 82.8477 19.156 82.4517 18.448C82.0677 17.74 81.8757 16.924 81.8757 16C81.8757 15.076 82.0737 14.26 82.4697 13.552C82.8657 12.844 83.4057 12.292 84.0897 11.896C84.7857 11.488 85.5777 11.284 86.4657 11.284C87.2697 11.284 87.9957 11.494 88.6437 11.914C89.2917 12.322 89.8017 12.916 90.1737 13.696C90.5577 14.476 90.7497 15.406 90.7497 16.486H83.6757L83.9457 16.234C83.9457 16.786 84.0657 17.266 84.3057 17.674C84.5457 18.07 84.8637 18.376 85.2597 18.592C85.6557 18.808 86.0937 18.916 86.5737 18.916C87.1257 18.916 87.5817 18.796 87.9417 18.556C88.3017 18.304 88.5837 17.98 88.7877 17.584L90.5697 18.34C90.3177 18.82 89.9937 19.24 89.5977 19.6C89.2137 19.96 88.7517 20.236 88.2117 20.428C87.6837 20.62 87.0777 20.716 86.3937 20.716ZM84.0717 15.19L83.7837 14.938H88.8597L88.5897 15.19C88.5897 14.698 88.4817 14.296 88.2657 13.984C88.0497 13.66 87.7737 13.42 87.4377 13.264C87.1137 13.096 86.7717 13.012 86.4117 13.012C86.0517 13.012 85.6917 13.096 85.3317 13.264C84.9717 13.42 84.6717 13.66 84.4317 13.984C84.1917 14.296 84.0717 14.698 84.0717 15.19ZM97.7837 20.5L97.6937 18.808V15.874C97.6937 15.262 97.6277 14.752 97.4957 14.344C97.3757 13.924 97.1717 13.606 96.8837 13.39C96.6077 13.162 96.2357 13.048 95.7677 13.048C95.3357 13.048 94.9577 13.138 94.6337 13.318C94.3097 13.498 94.0337 13.78 93.8057 14.164L92.0417 13.516C92.2337 13.12 92.4857 12.754 92.7977 12.418C93.1217 12.07 93.5237 11.794 94.0037 11.59C94.4957 11.386 95.0837 11.284 95.7677 11.284C96.6437 11.284 97.3757 11.458 97.9637 11.806C98.5517 12.142 98.9837 12.628 99.2597 13.264C99.5477 13.9 99.6917 14.668 99.6917 15.568L99.6377 20.5H97.7837ZM95.1917 20.716C94.1117 20.716 93.2717 20.476 92.6717 19.996C92.0837 19.516 91.7897 18.838 91.7897 17.962C91.7897 17.026 92.1017 16.312 92.7257 15.82C93.3617 15.328 94.2437 15.082 95.3717 15.082H97.7837V16.63H96.0197C95.2157 16.63 94.6517 16.744 94.3277 16.972C94.0037 17.188 93.8417 17.5 93.8417 17.908C93.8417 18.256 93.9797 18.532 94.2557 18.736C94.5437 18.928 94.9397 19.024 95.4437 19.024C95.8997 19.024 96.2957 18.922 96.6317 18.718C96.9677 18.514 97.2257 18.244 97.4057 17.908C97.5977 17.572 97.6937 17.194 97.6937 16.774H98.2877C98.2877 17.998 98.0417 18.964 97.5497 19.672C97.0577 20.368 96.2717 20.716 95.1917 20.716ZM101.733 20.5V7.9H103.749V20.5H101.733ZM109.569 20.716C108.621 20.716 107.895 20.482 107.391 20.014C106.899 19.534 106.653 18.85 106.653 17.962V8.692H108.651V17.584C108.651 18.004 108.747 18.322 108.939 18.538C109.143 18.754 109.437 18.862 109.821 18.862C109.941 18.862 110.073 18.838 110.217 18.79C110.361 18.742 110.523 18.652 110.703 18.52L111.441 20.05C111.129 20.266 110.817 20.428 110.505 20.536C110.193 20.656 109.881 20.716 109.569 20.716ZM105.159 13.228V11.5H111.081V13.228H105.159ZM113.072 20.5V7.9H115.088V20.5H113.072ZM119.174 20.5V15.892H121.189V20.5H119.174ZM119.174 15.892C119.174 15.172 119.09 14.62 118.922 14.236C118.754 13.84 118.52 13.564 118.22 13.408C117.932 13.252 117.596 13.174 117.212 13.174C116.528 13.162 116 13.384 115.628 13.84C115.268 14.296 115.088 14.95 115.088 15.802H114.313C114.313 14.854 114.451 14.044 114.728 13.372C115.016 12.688 115.418 12.172 115.934 11.824C116.45 11.464 117.062 11.284 117.77 11.284C118.478 11.284 119.09 11.428 119.606 11.716C120.122 12.004 120.512 12.454 120.776 13.066C121.052 13.666 121.189 14.452 121.189 15.424V15.892H119.174Z" fill="#B877FF"/>
</svg>
