<svg width="40" height="32" viewBox="0 0 40 32" fill="none" xmlns="http://www.w3.org/2000/svg">
<rect width="40" height="32" rx="16" fill="#202527"/>
<path d="M25.122 16.3095L21.1845 20.247C21.1024 20.3291 20.9911 20.3752 20.875 20.3752C20.7589 20.3752 20.6476 20.3291 20.5655 20.247C20.4834 20.1649 20.4373 20.0536 20.4373 19.9375C20.4373 19.8214 20.4834 19.7101 20.5655 19.628L23.7565 16.4375H15.1875C15.0715 16.4375 14.9602 16.3914 14.8781 16.3094C14.7961 16.2273 14.75 16.116 14.75 16C14.75 15.884 14.7961 15.7727 14.8781 15.6906C14.9602 15.6086 15.0715 15.5625 15.1875 15.5625H23.7565L20.5655 12.372C20.4834 12.2899 20.4373 12.1786 20.4373 12.0625C20.4373 11.9464 20.4834 11.8351 20.5655 11.753C20.6476 11.6709 20.7589 11.6248 20.875 11.6248C20.9911 11.6248 21.1024 11.6709 21.1845 11.753L25.122 15.6905C25.1627 15.7311 25.195 15.7794 25.217 15.8325C25.239 15.8856 25.2503 15.9425 25.2503 16C25.2503 16.0575 25.239 16.1144 25.217 16.1675C25.195 16.2206 25.1627 16.2689 25.122 16.3095Z" fill="white"/>
</svg>
