<svg width="24" height="24" viewBox="0 0 24 24" fill="none" xmlns="http://www.w3.org/2000/svg">
<path d="M21.9922 12C21.9922 13.3132 21.7335 14.6136 21.231 15.8268C20.7284 17.0401 19.9918 18.1425 19.0633 19.0711C18.1347 19.9997 17.0323 20.7362 15.819 21.2388C14.6058 21.7413 13.3054 22 11.9922 22C10.679 22 9.37861 21.7413 8.16535 21.2388C6.9521 20.7362 5.84971 19.9997 4.92112 19.0711C3.99253 18.1425 3.25594 17.0401 2.75339 15.8268C2.25084 14.6136 1.99219 13.3132 1.99219 12C1.99219 10.6868 2.25085 9.38642 2.75339 8.17316C3.25594 6.95991 3.99253 5.85752 4.92112 4.92893C5.84971 4.00035 6.9521 3.26375 8.16535 2.7612C9.37861 2.25866 10.679 2 11.9922 2C13.3054 2 14.6058 2.25866 15.819 2.76121C17.0323 3.26375 18.1347 4.00035 19.0633 4.92893C19.9918 5.85752 20.7284 6.95991 21.231 8.17317C21.7335 9.38642 21.9922 10.6868 21.9922 12L21.9922 12Z" stroke="#202527" stroke-width="1.5"/>
<path d="M15.9922 12C15.9922 13.3132 15.8887 14.6136 15.6877 15.8268C15.4867 17.0401 15.192 18.1425 14.8206 19.0711C14.4492 19.9997 14.0082 20.7362 13.5229 21.2388C13.0376 21.7413 12.5175 22 11.9922 22C11.4669 22 10.9468 21.7413 10.4615 21.2388C9.97615 20.7362 9.53519 19.9997 9.16376 19.0711C8.79233 18.1425 8.49769 17.0401 8.29667 15.8268C8.09565 14.6136 7.99219 13.3132 7.99219 12C7.99219 10.6868 8.09565 9.38642 8.29667 8.17316C8.49769 6.95991 8.79233 5.85752 9.16376 4.92893C9.5352 4.00035 9.97615 3.26375 10.4615 2.7612C10.9468 2.25866 11.4669 2 11.9922 2C12.5175 2 13.0376 2.25866 13.5229 2.76121C14.0082 3.26375 14.4492 4.00035 14.8206 4.92893C15.192 5.85752 15.4867 6.95991 15.6877 8.17317C15.8887 9.38642 15.9922 10.6868 15.9922 12L15.9922 12Z" stroke="#202527" stroke-width="1.5"/>
<path d="M1.99219 12H21.9922" stroke="#202527" stroke-width="1.5" stroke-linecap="round"/>
</svg>
