<svg width="24" height="24" viewBox="0 0 24 24" fill="none" xmlns="http://www.w3.org/2000/svg">
<path fill-rule="evenodd" clip-rule="evenodd" d="M21 7.62794C21 7.97472 20.7189 8.25584 20.3721 8.25584H3.62791C3.28112 8.25584 3 7.97472 3 7.62794C3 7.28115 3.28112 7.00003 3.62791 7.00003H20.3721C20.7189 7.00003 21 7.28115 21 7.62794Z" fill="#202527"/>
<path fill-rule="evenodd" clip-rule="evenodd" d="M21 11.8141C21 12.1608 20.7189 12.442 20.3721 12.442H8.65116C8.30438 12.442 8.02326 12.1608 8.02326 11.8141C8.02326 11.4673 8.30438 11.1862 8.65116 11.1862H20.3721C20.7189 11.1862 21 11.4673 21 11.8141Z" fill="#202527"/>
<path fill-rule="evenodd" clip-rule="evenodd" d="M21 16.0002C21 16.347 20.7189 16.6281 20.3721 16.6281H13.6744C13.3276 16.6281 13.0465 16.347 13.0465 16.0002C13.0465 15.6534 13.3276 15.3723 13.6744 15.3723H20.3721C20.7189 15.3723 21 15.6534 21 16.0002Z" fill="#202527"/>
</svg>
