<svg width="24" height="25" viewBox="0 0 24 25" fill="none" xmlns="http://www.w3.org/2000/svg">
<path d="M19.281 14.5306L12.531 21.2806C12.4614 21.3504 12.3787 21.4057 12.2876 21.4434C12.1966 21.4812 12.099 21.5006 12.0004 21.5006C11.9019 21.5006 11.8043 21.4812 11.7132 21.4434C11.6222 21.4057 11.5394 21.3504 11.4698 21.2806L4.71979 14.5306C4.57906 14.3899 4.5 14.199 4.5 14C4.5 13.801 4.57906 13.6101 4.71979 13.4694C4.86052 13.3286 5.05139 13.2496 5.25042 13.2496C5.44944 13.2496 5.64031 13.3286 5.78104 13.4694L11.2504 18.9397V4.25C11.2504 4.05109 11.3294 3.86032 11.4701 3.71967C11.6107 3.57902 11.8015 3.5 12.0004 3.5C12.1993 3.5 12.3901 3.57902 12.5307 3.71967C12.6714 3.86032 12.7504 4.05109 12.7504 4.25V18.9397L18.2198 13.4694C18.3605 13.3286 18.5514 13.2496 18.7504 13.2496C18.9494 13.2496 19.1403 13.3286 19.281 13.4694C19.4218 13.6101 19.5008 13.801 19.5008 14C19.5008 14.199 19.4218 14.3899 19.281 14.5306Z" fill="black"/>
</svg>
