<svg width="24" height="24" viewBox="0 0 24 24" fill="none" xmlns="http://www.w3.org/2000/svg">
<path fill-rule="evenodd" clip-rule="evenodd" d="M17.3903 2.92637C16.0904 2.75159 14.3821 2.75 12.0039 2.75C9.62568 2.75 7.91746 2.75159 6.61748 2.92637C5.33908 3.09825 4.56836 3.42514 3.9987 3.9948C3.42905 4.56445 3.10215 5.33517 2.93028 6.61358C2.7555 7.91356 2.75391 9.62178 2.75391 12C2.75391 14.3782 2.7555 16.0864 2.93028 17.3864C3.10215 18.6648 3.42905 19.4355 3.9987 20.0052C4.46633 20.4728 5.06945 20.7769 5.97767 20.9659L20.9698 5.97376C20.7808 5.06554 20.4767 4.46242 20.0091 3.9948C19.4395 3.42514 18.6687 3.09825 17.3903 2.92637ZM21.1912 7.87364L15.065 13.9998L20.4723 19.4071C20.7669 18.9078 20.959 18.2678 21.0775 17.3864C21.2523 16.0864 21.2539 14.3782 21.2539 12C21.2539 10.3215 21.2531 8.97669 21.1912 7.87364ZM19.4118 20.4679L14.0044 15.0605L7.87755 21.1873C8.9806 21.2492 10.3254 21.25 12.0039 21.25C14.3821 21.25 16.0904 21.2484 17.3903 21.0736C18.2722 20.9551 18.9124 20.7628 19.4118 20.4679ZM17.5902 1.43975C19.0349 1.63399 20.175 2.03933 21.0698 2.93414C21.9646 3.82895 22.3699 4.96897 22.5642 6.41371C22.7539 7.82519 22.7539 9.63423 22.7539 11.9426V12.0574C22.7539 14.3658 22.7539 16.1748 22.5642 17.5863C22.3699 19.031 21.9646 20.1711 21.0698 21.0659C20.175 21.9607 19.0349 22.366 17.5902 22.5603C16.1787 22.75 14.3697 22.75 12.0613 22.75H11.9465C9.63814 22.75 7.8291 22.75 6.41761 22.5603C4.97288 22.366 3.83285 21.9607 2.93804 21.0659C2.04323 20.1711 1.63789 19.031 1.44365 17.5863C1.25388 16.1748 1.25389 14.3658 1.25391 12.0574V11.9426C1.25389 9.63423 1.25388 7.82519 1.44365 6.41371C1.63789 4.96897 2.04323 3.82895 2.93804 2.93414C3.83285 2.03933 4.97288 1.63399 6.41761 1.43975C7.8291 1.24998 9.63813 1.24999 11.9465 1.25H12.0613C14.3697 1.24999 16.1787 1.24998 17.5902 1.43975ZM4.75391 8.75722C4.75391 6.49419 6.70837 4.7499 9.00391 4.7499C11.2994 4.7499 13.2539 6.49419 13.2539 8.75722C13.2539 10.7835 12.0081 13.175 9.93866 14.0593C9.34412 14.3134 8.66369 14.3134 8.06915 14.0593C5.99972 13.175 4.75391 10.7835 4.75391 8.75722ZM9.00391 6.2499C7.43346 6.2499 6.25391 7.42231 6.25391 8.75722C6.25391 10.3007 7.24226 12.0747 8.6586 12.68C8.87665 12.7732 9.13117 12.7732 9.34922 12.68C10.7656 12.0747 11.7539 10.3007 11.7539 8.75722C11.7539 7.42231 10.5744 6.2499 9.00391 6.2499Z" fill="#202527"/>
<path d="M10.0039 9C10.0039 9.55229 9.55619 10 9.00391 10C8.45162 10 8.00391 9.55229 8.00391 9C8.00391 8.44772 8.45162 8 9.00391 8C9.55619 8 10.0039 8.44772 10.0039 9Z" fill="#202527"/>
</svg>
