<svg width="109" height="27" viewBox="0 0 109 27" fill="none" xmlns="http://www.w3.org/2000/svg">
<path d="M4.392 20.216C3.792 20.216 3.24 20.126 2.736 19.946C2.232 19.766 1.8 19.514 1.44 19.19C1.08 18.854 0.804 18.464 0.612 18.02L2.358 17.246C2.538 17.582 2.802 17.864 3.15 18.092C3.51 18.32 3.906 18.434 4.338 18.434C4.806 18.434 5.178 18.356 5.454 18.2C5.742 18.032 5.886 17.804 5.886 17.516C5.886 17.24 5.778 17.03 5.562 16.886C5.346 16.73 5.04 16.604 4.644 16.508L3.798 16.274C2.946 16.058 2.28 15.716 1.8 15.248C1.32 14.768 1.08 14.222 1.08 13.61C1.08 12.71 1.368 12.014 1.944 11.522C2.532 11.03 3.372 10.784 4.464 10.784C5.016 10.784 5.52 10.868 5.976 11.036C6.444 11.192 6.846 11.42 7.182 11.72C7.518 12.008 7.752 12.35 7.884 12.746L6.21 13.502C6.09 13.202 5.862 12.974 5.526 12.818C5.19 12.65 4.818 12.566 4.41 12.566C4.002 12.566 3.684 12.656 3.456 12.836C3.228 13.004 3.114 13.244 3.114 13.556C3.114 13.736 3.216 13.904 3.42 14.06C3.624 14.204 3.918 14.324 4.302 14.42L5.364 14.672C5.952 14.816 6.432 15.044 6.804 15.356C7.176 15.656 7.452 15.998 7.632 16.382C7.812 16.754 7.902 17.132 7.902 17.516C7.902 18.056 7.746 18.53 7.434 18.938C7.134 19.346 6.72 19.664 6.192 19.892C5.664 20.108 5.064 20.216 4.392 20.216ZM13.0828 20.216C12.1348 20.216 11.4088 19.982 10.9048 19.514C10.4128 19.034 10.1668 18.35 10.1668 17.462V8.192H12.1648V17.084C12.1648 17.504 12.2608 17.822 12.4528 18.038C12.6568 18.254 12.9508 18.362 13.3348 18.362C13.4548 18.362 13.5868 18.338 13.7308 18.29C13.8748 18.242 14.0368 18.152 14.2168 18.02L14.9548 19.55C14.6428 19.766 14.3308 19.928 14.0188 20.036C13.7068 20.156 13.3948 20.216 13.0828 20.216ZM8.67277 12.728V11H14.5948V12.728H8.67277ZM21.9341 20L21.8441 18.308V15.374C21.8441 14.762 21.7781 14.252 21.6461 13.844C21.5261 13.424 21.3221 13.106 21.0341 12.89C20.7581 12.662 20.3861 12.548 19.9181 12.548C19.4861 12.548 19.1081 12.638 18.7841 12.818C18.4601 12.998 18.1841 13.28 17.9561 13.664L16.1921 13.016C16.3841 12.62 16.6361 12.254 16.9481 11.918C17.2721 11.57 17.6741 11.294 18.1541 11.09C18.6461 10.886 19.2341 10.784 19.9181 10.784C20.7941 10.784 21.5261 10.958 22.1141 11.306C22.7021 11.642 23.1341 12.128 23.4101 12.764C23.6981 13.4 23.8421 14.168 23.8421 15.068L23.7881 20H21.9341ZM19.3421 20.216C18.2621 20.216 17.4221 19.976 16.8221 19.496C16.2341 19.016 15.9401 18.338 15.9401 17.462C15.9401 16.526 16.2521 15.812 16.8761 15.32C17.5121 14.828 18.3941 14.582 19.5221 14.582H21.9341V16.13H20.1701C19.3661 16.13 18.8021 16.244 18.4781 16.472C18.1541 16.688 17.9921 17 17.9921 17.408C17.9921 17.756 18.1301 18.032 18.4061 18.236C18.6941 18.428 19.0901 18.524 19.5941 18.524C20.0501 18.524 20.4461 18.422 20.7821 18.218C21.1181 18.014 21.3761 17.744 21.5561 17.408C21.7481 17.072 21.8441 16.694 21.8441 16.274H22.4381C22.4381 17.498 22.1921 18.464 21.7001 19.172C21.2081 19.868 20.4221 20.216 19.3421 20.216ZM29.4656 20.216C28.5176 20.216 27.7916 19.982 27.2876 19.514C26.7956 19.034 26.5496 18.35 26.5496 17.462V8.192H28.5476V17.084C28.5476 17.504 28.6436 17.822 28.8356 18.038C29.0396 18.254 29.3336 18.362 29.7176 18.362C29.8376 18.362 29.9696 18.338 30.1136 18.29C30.2576 18.242 30.4196 18.152 30.5996 18.02L31.3376 19.55C31.0256 19.766 30.7136 19.928 30.4016 20.036C30.0896 20.156 29.7776 20.216 29.4656 20.216ZM25.0556 12.728V11H30.9776V12.728H25.0556ZM36.8409 20.216C35.9649 20.216 35.1849 20.018 34.5009 19.622C33.8289 19.214 33.2949 18.656 32.8989 17.948C32.5149 17.24 32.3229 16.424 32.3229 15.5C32.3229 14.576 32.5209 13.76 32.9169 13.052C33.3129 12.344 33.8529 11.792 34.5369 11.396C35.2329 10.988 36.0249 10.784 36.9129 10.784C37.7169 10.784 38.4429 10.994 39.0909 11.414C39.7389 11.822 40.2489 12.416 40.6209 13.196C41.0049 13.976 41.1969 14.906 41.1969 15.986H34.1229L34.3929 15.734C34.3929 16.286 34.5129 16.766 34.7529 17.174C34.9929 17.57 35.3109 17.876 35.7069 18.092C36.1029 18.308 36.5409 18.416 37.0209 18.416C37.5729 18.416 38.0289 18.296 38.3889 18.056C38.7489 17.804 39.0309 17.48 39.2349 17.084L41.0169 17.84C40.7649 18.32 40.4409 18.74 40.0449 19.1C39.6609 19.46 39.1989 19.736 38.6589 19.928C38.1309 20.12 37.5249 20.216 36.8409 20.216ZM34.5189 14.69L34.2309 14.438H39.3069L39.0369 14.69C39.0369 14.198 38.9289 13.796 38.7129 13.484C38.4969 13.16 38.2209 12.92 37.8849 12.764C37.5609 12.596 37.2189 12.512 36.8589 12.512C36.4989 12.512 36.1389 12.596 35.7789 12.764C35.4189 12.92 35.1189 13.16 34.8789 13.484C34.6389 13.796 34.5189 14.198 34.5189 14.69ZM46.017 20.216C45.417 20.216 44.865 20.126 44.361 19.946C43.857 19.766 43.425 19.514 43.065 19.19C42.705 18.854 42.429 18.464 42.237 18.02L43.983 17.246C44.163 17.582 44.427 17.864 44.775 18.092C45.135 18.32 45.531 18.434 45.963 18.434C46.431 18.434 46.803 18.356 47.079 18.2C47.367 18.032 47.511 17.804 47.511 17.516C47.511 17.24 47.403 17.03 47.187 16.886C46.971 16.73 46.665 16.604 46.269 16.508L45.423 16.274C44.571 16.058 43.905 15.716 43.425 15.248C42.945 14.768 42.705 14.222 42.705 13.61C42.705 12.71 42.993 12.014 43.569 11.522C44.157 11.03 44.997 10.784 46.089 10.784C46.641 10.784 47.145 10.868 47.601 11.036C48.069 11.192 48.471 11.42 48.807 11.72C49.143 12.008 49.377 12.35 49.509 12.746L47.835 13.502C47.715 13.202 47.487 12.974 47.151 12.818C46.815 12.65 46.443 12.566 46.035 12.566C45.627 12.566 45.309 12.656 45.081 12.836C44.853 13.004 44.739 13.244 44.739 13.556C44.739 13.736 44.841 13.904 45.045 14.06C45.249 14.204 45.543 14.324 45.927 14.42L46.989 14.672C47.577 14.816 48.057 15.044 48.429 15.356C48.801 15.656 49.077 15.998 49.257 16.382C49.437 16.754 49.527 17.132 49.527 17.516C49.527 18.056 49.371 18.53 49.059 18.938C48.759 19.346 48.345 19.664 47.817 19.892C47.289 20.108 46.689 20.216 46.017 20.216ZM55.2658 20.216C54.3658 20.216 53.5618 20.018 52.8538 19.622C52.1578 19.214 51.6118 18.656 51.2158 17.948C50.8198 17.24 50.6218 16.424 50.6218 15.5C50.6218 14.576 50.8138 13.76 51.1978 13.052C51.5938 12.344 52.1398 11.792 52.8358 11.396C53.5318 10.988 54.3298 10.784 55.2298 10.784C56.1298 10.784 56.9278 10.988 57.6238 11.396C58.3198 11.792 58.8598 12.344 59.2438 13.052C59.6398 13.76 59.8378 14.576 59.8378 15.5C59.8378 16.424 59.6458 17.24 59.2618 17.948C58.8778 18.656 58.3378 19.214 57.6418 19.622C56.9458 20.018 56.1538 20.216 55.2658 20.216ZM55.2658 18.362C55.7578 18.362 56.1958 18.242 56.5798 18.002C56.9638 17.75 57.2638 17.414 57.4798 16.994C57.6958 16.562 57.8038 16.064 57.8038 15.5C57.8038 14.936 57.6898 14.444 57.4618 14.024C57.2458 13.592 56.9458 13.256 56.5618 13.016C56.1778 12.764 55.7338 12.638 55.2298 12.638C54.7258 12.638 54.2818 12.758 53.8978 12.998C53.5138 13.238 53.2138 13.574 52.9978 14.006C52.7818 14.438 52.6738 14.936 52.6738 15.5C52.6738 16.064 52.7818 16.562 52.9978 16.994C53.2258 17.414 53.5318 17.75 53.9158 18.002C54.3118 18.242 54.7618 18.362 55.2658 18.362ZM62.4848 20V10.046C62.4848 9.098 62.7188 8.372 63.1868 7.868C63.6668 7.352 64.3868 7.094 65.3468 7.094C65.6588 7.094 65.9888 7.148 66.3368 7.256C66.6968 7.352 67.0388 7.484 67.3628 7.652L66.6248 9.146C66.3968 9.038 66.1928 8.96 66.0128 8.912C65.8448 8.864 65.6948 8.84 65.5628 8.84C65.2028 8.84 64.9328 8.96 64.7528 9.2C64.5848 9.428 64.5008 9.806 64.5008 10.334V20H62.4848ZM60.9368 12.656V11H66.8588V12.656H60.9368ZM68.493 20V11H70.383L70.473 12.206C70.749 11.738 71.103 11.384 71.535 11.144C71.967 10.904 72.459 10.784 73.011 10.784C73.731 10.784 74.343 10.946 74.847 11.27C75.351 11.594 75.717 12.086 75.945 12.746C76.209 12.11 76.581 11.624 77.061 11.288C77.541 10.952 78.105 10.784 78.753 10.784C79.797 10.784 80.601 11.12 81.165 11.792C81.729 12.452 82.005 13.472 81.993 14.852V20H79.995V15.392C79.995 14.672 79.917 14.12 79.761 13.736C79.605 13.34 79.395 13.064 79.131 12.908C78.867 12.752 78.561 12.674 78.213 12.674C77.589 12.662 77.103 12.884 76.755 13.34C76.419 13.796 76.251 14.45 76.251 15.302V20H74.235V15.392C74.235 14.672 74.157 14.12 74.001 13.736C73.857 13.34 73.653 13.064 73.389 12.908C73.125 12.752 72.819 12.674 72.471 12.674C71.847 12.662 71.361 12.884 71.013 13.34C70.677 13.796 70.509 14.45 70.509 15.302V20H68.493ZM84.1756 20V11H86.1736V20H84.1756ZM85.1836 9.29C84.8596 9.29 84.5776 9.176 84.3376 8.948C84.1096 8.708 83.9956 8.426 83.9956 8.102C83.9956 7.778 84.1096 7.502 84.3376 7.274C84.5776 7.046 84.8596 6.932 85.1836 6.932C85.5076 6.932 85.7836 7.046 86.0116 7.274C86.2516 7.502 86.3716 7.778 86.3716 8.102C86.3716 8.426 86.2516 8.708 86.0116 8.948C85.7836 9.176 85.5076 9.29 85.1836 9.29ZM88.5496 20V11H90.4396L90.5656 12.656V20H88.5496ZM94.6516 20V15.392H96.6676V20H94.6516ZM94.6516 15.392C94.6516 14.672 94.5676 14.12 94.3996 13.736C94.2436 13.34 94.0156 13.064 93.7156 12.908C93.4276 12.752 93.0856 12.674 92.6896 12.674C92.0176 12.662 91.4956 12.884 91.1236 13.34C90.7516 13.796 90.5656 14.45 90.5656 15.302H89.8096C89.8096 14.354 89.9476 13.544 90.2236 12.872C90.4996 12.188 90.8956 11.672 91.4116 11.324C91.9276 10.964 92.5396 10.784 93.2476 10.784C93.9676 10.784 94.5796 10.928 95.0836 11.216C95.5996 11.504 95.9896 11.954 96.2536 12.566C96.5296 13.166 96.6676 13.952 96.6676 14.924V15.392H94.6516ZM105.208 20L105.118 18.326V7.4H107.116V20H105.208ZM102.274 20.216C101.458 20.216 100.744 20.024 100.132 19.64C99.5318 19.244 99.0578 18.692 98.7098 17.984C98.3738 17.276 98.2058 16.448 98.2058 15.5C98.2058 14.54 98.3738 13.712 98.7098 13.016C99.0578 12.308 99.5318 11.762 100.132 11.378C100.744 10.982 101.458 10.784 102.274 10.784C103.03 10.784 103.678 10.982 104.218 11.378C104.77 11.762 105.19 12.308 105.478 13.016C105.766 13.712 105.91 14.54 105.91 15.5C105.91 16.448 105.766 17.276 105.478 17.984C105.19 18.692 104.77 19.244 104.218 19.64C103.678 20.024 103.03 20.216 102.274 20.216ZM102.778 18.38C103.234 18.38 103.636 18.26 103.984 18.02C104.344 17.768 104.62 17.426 104.812 16.994C105.016 16.562 105.118 16.064 105.118 15.5C105.118 14.936 105.016 14.438 104.812 14.006C104.62 13.574 104.344 13.238 103.984 12.998C103.636 12.758 103.228 12.638 102.76 12.638C102.28 12.638 101.854 12.758 101.482 12.998C101.11 13.238 100.816 13.574 100.6 14.006C100.396 14.438 100.288 14.936 100.276 15.5C100.288 16.064 100.396 16.562 100.6 16.994C100.816 17.426 101.11 17.768 101.482 18.02C101.866 18.26 102.298 18.38 102.778 18.38Z" fill="#B877FF"/>
</svg>
