<svg width="21" height="15" viewBox="0 0 21 15" fill="none" xmlns="http://www.w3.org/2000/svg">
<g clip-path="url(#clip0_2492_15851)">
<rect width="21" height="15" fill="#3A99FF"/>
<path d="M19 0H2C0.89543 0 0 0.89543 0 2V13C0 14.1046 0.89543 15 2 15H19C20.1046 15 21 14.1046 21 13V2C21 0.89543 20.1046 0 19 0Z" fill="#3A99FF"/>
<path fill-rule="evenodd" clip-rule="evenodd" d="M0 0H21V8H0V0Z" fill="#249F58"/>
<path fill-rule="evenodd" clip-rule="evenodd" d="M0 0L21 7.5L0 15V0Z" fill="#F93939"/>
<path fill-rule="evenodd" clip-rule="evenodd" d="M9 7.50022C9 6.12022 7.88 5.00022 6.5 4.50022C5.12 5.00022 4 6.12022 4 7.50022C4 8.71022 4.86 9.71822 6 9.95022V6.49822C6 6.22322 6.232 6.00022 6.5 6.00022C6.776 6.00022 7 6.21522 7 6.49822V9.95022C8.14 9.71822 9 8.71022 9 7.50022ZM10 7.50022C10 5.56722 8.433 4.00022 6.5 4.50022C4.567 4.00022 3 5.56722 3 7.50022C3 9.43322 4.567 11.0002 6.5 11.0002C8.433 11.0002 10 9.43322 10 7.50022Z" fill="#FFDA2C"/>
</g>
<defs>
<clipPath id="clip0_2492_15851">
<rect width="21" height="15" fill="white"/>
</clipPath>
</defs>
</svg>
